<svg xmlns="http://www.w3.org/2000/svg" viewBox="0 0 260 500" id="body-advanced-back">
  <defs>
    <style>
      .body-outline { fill: none; stroke: #6c757d; stroke-width: 1.5; stroke-linecap: round; stroke-linejoin: round; }
      .muscle-region { fill: rgba(13, 110, 253, 0.15); stroke: rgba(13, 110, 253, 0.3); stroke-width: 0.75; cursor: pointer; transition: fill 0.15s, stroke 0.15s; }
      .muscle-region:hover, .muscle-region.hover { fill: rgba(13, 110, 253, 0.4); stroke: rgba(13, 110, 253, 0.7); stroke-width: 1.5; }
      .muscle-region.selected { fill: rgba(25, 135, 84, 0.5); stroke: rgba(25, 135, 84, 0.8); stroke-width: 1.25; }
      .muscle-region.selected:hover, .muscle-region.selected.hover { fill: rgba(25, 135, 84, 0.65); stroke: rgba(25, 135, 84, 0.9); }
    </style>
  </defs>
  
  <!-- Body Outline -->
  <g class="body-outline">
    <ellipse cx="130" cy="38" rx="28" ry="32"/>
    <path d="M 112,68 L 112,82 M 148,68 L 148,82"/>
    <path d="M 112,82 Q 85,85 68,95 Q 45,108 42,140 L 38,200 Q 32,240 25,290 L 35,305"/>
    <path d="M 148,82 Q 175,85 192,95 Q 215,108 218,140 L 222,200 Q 228,240 235,290 L 225,305"/>
    <path d="M 60,160 Q 55,210 60,260 Q 65,280 82,290"/>
    <path d="M 200,160 Q 205,210 200,260 Q 195,280 178,290"/>
    <path d="M 82,290 Q 105,275 130,275 Q 155,275 178,290"/>
    <path d="M 82,290 Q 68,340 62,400 Q 58,460 75,500"/>
    <path d="M 178,290 Q 192,340 198,400 Q 202,460 185,500"/>
    <path d="M 130,275 L 130,310"/>
    <path d="M 108,310 Q 105,400 108,500"/>
    <path d="M 152,310 Q 155,400 152,500"/>
    <path d="M 25,290 Q 18,310 20,330 L 35,335 Q 40,315 35,300"/>
    <path d="M 235,290 Q 242,310 240,330 L 225,335 Q 220,315 225,300"/>
  </g>

  <!-- MUSCLE REGIONS - ADVANCED BACK -->
  <g class="muscle-regions">
    
    <!-- UPPER TRAPEZIUS - at base of neck -->
    <path class="muscle-region" id="upper-trapezius" data-muscle="upper-trapezius"
          d="M 100,72 
             C 110,68 120,66 130,66
             C 140,66 150,68 160,72
             L 165,88
             C 155,95 142,100 130,100
             C 118,100 105,95 95,88
             Z"/>

    <!-- LATERAL DELTOID - Left (side shoulder cap) -->
    <path class="muscle-region" id="lateral-deltoid-L" data-muscle="lateral-deltoid"
          d="M 68,92 
             C 55,100 48,118 48,138
             L 48,158
             C 56,152 64,142 70,132
             C 72,122 72,108 70,98
             Z"/>
    
    <!-- LATERAL DELTOID - Right -->
    <path class="muscle-region" id="lateral-deltoid-R" data-muscle="lateral-deltoid"
          d="M 192,92 
             C 205,100 212,118 212,138
             L 212,158
             C 204,152 196,142 190,132
             C 188,122 188,108 190,98
             Z"/>

    <!-- POSTERIOR DELTOID - Left (rear delt) -->
    <path class="muscle-region" id="posterior-deltoid-L" data-muscle="posterior-deltoid"
          d="M 72,100 
             C 78,102 84,108 88,118
             L 85,135
             C 78,128 72,122 70,115
             C 68,108 70,102 72,100
             Z"/>
    
    <!-- POSTERIOR DELTOID - Right -->
    <path class="muscle-region" id="posterior-deltoid-R" data-muscle="posterior-deltoid"
          d="M 188,100 
             C 182,102 176,108 172,118
             L 175,135
             C 182,128 188,122 190,115
             C 192,108 190,102 188,100
             Z"/>

    <!-- TRAPS-MIDDLE (Mid Traps/Rhomboids) -->
    <path class="muscle-region" id="traps-middle" data-muscle="traps-middle"
          d="M 92,92 
             L 130,100
             L 168,92
             L 172,118
             C 168,140 155,152 130,155
             C 105,152 92,140 88,118
             Z"/>

    <!-- LOWER TRAPEZIUS -->
    <path class="muscle-region" id="lower-trapezius" data-muscle="lower-trapezius"
          d="M 88,122 
             L 130,158
             L 172,122
             C 168,145 155,165 130,172
             C 105,165 92,145 88,122
             Z"/>

    <!-- LATERAL HEAD TRICEPS - Left -->
    <path class="muscle-region" id="lateral-head-triceps-L" data-muscle="lateral-head-triceps"
          d="M 46,160 
             C 42,180 40,205 42,230
             L 48,235
             C 52,210 52,185 50,165
             Z"/>
    
    <!-- LATERAL HEAD TRICEPS - Right -->
    <path class="muscle-region" id="lateral-head-triceps-R" data-muscle="lateral-head-triceps"
          d="M 214,160 
             C 218,180 220,205 218,230
             L 212,235
             C 208,210 208,185 210,165
             Z"/>

    <!-- LONG HEAD TRICEPS - Left -->
    <path class="muscle-region" id="long-head-triceps-L" data-muscle="long-head-triceps"
          d="M 52,162 
             C 56,185 58,210 56,240
             L 50,245
             C 48,220 48,190 50,165
             Z"/>
    
    <!-- LONG HEAD TRICEPS - Right -->
    <path class="muscle-region" id="long-head-triceps-R" data-muscle="long-head-triceps"
          d="M 208,162 
             C 204,185 202,210 204,240
             L 210,245
             C 212,220 212,190 210,165
             Z"/>

    <!-- MEDIAL HEAD TRICEPS - Left -->
    <path class="muscle-region" id="medial-head-triceps-L" data-muscle="medial-head-triceps"
          d="M 56,240 
             C 56,255 54,270 52,280
             L 58,282
             C 62,268 64,252 62,238
             Z"/>
    
    <!-- MEDIAL HEAD TRICEPS - Right -->
    <path class="muscle-region" id="medial-head-triceps-R" data-muscle="medial-head-triceps"
          d="M 204,240 
             C 204,255 206,270 208,280
             L 202,282
             C 198,268 196,252 198,238
             Z"/>

    <!-- WRIST FLEXORS - Left -->
    <path class="muscle-region" id="wrist-flexors-L" data-muscle="wrist-flexors"
          d="M 52,285 
             C 48,300 42,320 38,340
             L 44,345
             C 50,325 54,305 56,290
             Z"/>
    
    <!-- WRIST FLEXORS - Right -->
    <path class="muscle-region" id="wrist-flexors-R" data-muscle="wrist-flexors"
          d="M 208,285 
             C 212,300 218,320 222,340
             L 216,345
             C 210,325 206,305 204,290
             Z"/>

    <!-- WRIST EXTENSORS - Left -->
    <path class="muscle-region" id="wrist-extensors-L" data-muscle="wrist-extensors"
          d="M 45,282 
             C 40,300 34,325 30,348
             L 38,352
             C 42,328 46,302 50,285
             Z"/>
    
    <!-- WRIST EXTENSORS - Right -->
    <path class="muscle-region" id="wrist-extensors-R" data-muscle="wrist-extensors"
          d="M 215,282 
             C 220,300 226,325 230,348
             L 222,352
             C 218,328 214,302 210,285
             Z"/>

    <!-- LATS - Left (wing shape) -->
    <path class="muscle-region" id="lats-L" data-muscle="lats"
          d="M 58,162 
             C 52,185 52,215 56,245
             L 100,260
             C 98,225 92,190 85,165
             Z"/>
    
    <!-- LATS - Right -->
    <path class="muscle-region" id="lats-R" data-muscle="lats"
          d="M 202,162 
             C 208,185 208,215 204,245
             L 160,260
             C 162,225 168,190 175,165
             Z"/>

    <!-- LOWER BACK (Erector Spinae) -->
    <path class="muscle-region" id="lowerback" data-muscle="lowerback"
          d="M 100,255 
             L 160,255
             C 168,275 172,300 168,320
             L 130,332
             L 92,320
             C 88,300 92,275 100,255
             Z"/>

    <!-- GLUTEUS MEDIUS - Left (upper/outer glute) -->
    <path class="muscle-region" id="gluteus-medius-L" data-muscle="gluteus-medius"
          d="M 82,310 
             C 72,325 68,345 72,365
             L 100,368
             C 100,348 95,328 90,315
             Z"/>
    
    <!-- GLUTEUS MEDIUS - Right -->
    <path class="muscle-region" id="gluteus-medius-R" data-muscle="gluteus-medius"
          d="M 178,310 
             C 188,325 192,345 188,365
             L 160,368
             C 160,348 165,328 170,315
             Z"/>

    <!-- GLUTEUS MAXIMUS - Left (main glute mass) -->
    <path class="muscle-region" id="gluteus-maximus-L" data-muscle="gluteus-maximus"
          d="M 95,318 
             C 100,335 102,355 100,375
             L 108,380
             C 115,360 115,340 110,322
             Z"/>
    
    <!-- GLUTEUS MAXIMUS - Right -->
    <path class="muscle-region" id="gluteus-maximus-R" data-muscle="gluteus-maximus"
          d="M 165,318 
             C 160,335 158,355 160,375
             L 152,380
             C 145,360 145,340 150,322
             Z"/>

    <!-- LATERAL HAMSTRINGS - Left (outer) -->
    <path class="muscle-region" id="lateral-hamstrings-L" data-muscle="lateral-hamstrings"
          d="M 72,372 
             C 68,400 65,440 66,480
             L 70,495
             L 90,498
             C 92,460 92,420 88,385
             Z"/>
    
    <!-- LATERAL HAMSTRINGS - Right -->
    <path class="muscle-region" id="lateral-hamstrings-R" data-muscle="lateral-hamstrings"
          d="M 188,372 
             C 192,400 195,440 194,480
             L 190,495
             L 170,498
             C 168,460 168,420 172,385
             Z"/>

    <!-- MEDIAL HAMSTRINGS - Left (inner) -->
    <path class="muscle-region" id="medial-hamstrings-L" data-muscle="medial-hamstrings"
          d="M 100,380 
             L 108,385
             C 108,425 108,465 106,495
             L 95,498
             C 95,460 96,420 100,380
             Z"/>
    
    <!-- MEDIAL HAMSTRINGS - Right -->
    <path class="muscle-region" id="medial-hamstrings-R" data-muscle="medial-hamstrings"
          d="M 160,380 
             L 152,385
             C 152,425 152,465 154,495
             L 165,498
             C 165,460 164,420 160,380
             Z"/>

    <!-- GASTROCNEMIUS - Left (upper calf) -->
    <path class="muscle-region" id="gastrocnemius-L" data-muscle="gastrocnemius"
          d="M 70,502 
             C 66,520 66,545 72,565
             L 92,568
             C 90,548 90,522 88,505
             Z"/>
    
    <!-- GASTROCNEMIUS - Right -->
    <path class="muscle-region" id="gastrocnemius-R" data-muscle="gastrocnemius"
          d="M 190,502 
             C 194,520 194,545 188,565
             L 168,568
             C 170,548 170,522 172,505
             Z"/>

    <!-- SOLEUS - Left (lower calf) -->
    <path class="muscle-region" id="soleus-L" data-muscle="soleus"
          d="M 74,560 
             C 78,568 85,572 94,572
             L 72,572
             Z"/>
    
    <!-- SOLEUS - Right -->
    <path class="muscle-region" id="soleus-R" data-muscle="soleus"
          d="M 186,560 
             C 182,568 175,572 166,572
             L 188,572
             Z"/>

  </g>
</svg>