<svg xmlns="http://www.w3.org/2000/svg" viewBox="0 0 260 500" id="body-advanced-front">
  <defs>
    <style>
      .body-outline { fill: none; stroke: #6c757d; stroke-width: 1.5; stroke-linecap: round; stroke-linejoin: round; }
      .muscle-region { fill: rgba(13, 110, 253, 0.15); stroke: rgba(13, 110, 253, 0.3); stroke-width: 0.75; cursor: pointer; transition: fill 0.15s, stroke 0.15s; }
      .muscle-region:hover, .muscle-region.hover { fill: rgba(13, 110, 253, 0.4); stroke: rgba(13, 110, 253, 0.7); stroke-width: 1.5; }
      .muscle-region.selected { fill: rgba(25, 135, 84, 0.5); stroke: rgba(25, 135, 84, 0.8); stroke-width: 1.25; }
      .muscle-region.selected:hover, .muscle-region.selected.hover { fill: rgba(25, 135, 84, 0.65); stroke: rgba(25, 135, 84, 0.9); }
    </style>
  </defs>
  
  <!-- Body Outline -->
  <g class="body-outline">
    <ellipse cx="130" cy="38" rx="28" ry="32"/>
    <path d="M 112,68 L 112,82 M 148,68 L 148,82"/>
    <path d="M 112,82 Q 85,85 68,95 Q 45,108 42,140 L 38,200 Q 32,240 25,290 L 35,305"/>
    <path d="M 148,82 Q 175,85 192,95 Q 215,108 218,140 L 222,200 Q 228,240 235,290 L 225,305"/>
    <path d="M 60,160 Q 55,210 60,260 Q 65,280 82,290"/>
    <path d="M 200,160 Q 205,210 200,260 Q 195,280 178,290"/>
    <path d="M 82,290 Q 105,275 130,275 Q 155,275 178,290"/>
    <path d="M 82,290 Q 68,340 62,400 Q 58,460 75,500"/>
    <path d="M 178,290 Q 192,340 198,400 Q 202,460 185,500"/>
    <path d="M 130,275 L 130,310"/>
    <path d="M 108,310 Q 105,400 108,500"/>
    <path d="M 152,310 Q 155,400 152,500"/>
    <path d="M 25,290 Q 18,310 20,330 L 35,335 Q 40,315 35,300"/>
    <path d="M 235,290 Q 242,310 240,330 L 225,335 Q 220,315 225,300"/>
  </g>

  <!-- MUSCLE REGIONS - ADVANCED -->
  <g class="muscle-regions">
    
    <!-- ANTERIOR DELTOID - Left (front of shoulder) -->
    <path class="muscle-region" id="anterior-deltoid-L" data-muscle="anterior-deltoid"
          d="M 78,100 
             C 72,105 68,115 68,125
             L 72,138
             C 78,132 82,122 82,112
             C 82,105 80,102 78,100
             Z"/>
    
    <!-- ANTERIOR DELTOID - Right -->
    <path class="muscle-region" id="anterior-deltoid-R" data-muscle="anterior-deltoid"
          d="M 182,100 
             C 188,105 192,115 192,125
             L 188,138
             C 182,132 178,122 178,112
             C 178,105 180,102 182,100
             Z"/>

    <!-- LATERAL DELTOID - Left (side cap of shoulder) -->
    <path class="muscle-region" id="lateral-deltoid-L" data-muscle="lateral-deltoid"
          d="M 68,95 
             C 55,102 48,120 48,140
             L 48,155
             C 55,150 62,142 68,135
             L 68,125
             C 68,115 68,105 68,95
             Z"/>
    
    <!-- LATERAL DELTOID - Right -->
    <path class="muscle-region" id="lateral-deltoid-R" data-muscle="lateral-deltoid"
          d="M 192,95 
             C 205,102 212,120 212,140
             L 212,155
             C 205,150 198,142 192,135
             L 192,125
             C 192,115 192,105 192,95
             Z"/>

    <!-- UPPER PECTORALIS - Upper chest -->
    <path class="muscle-region" id="upper-pectoralis" data-muscle="upper-pectoralis"
          d="M 78,105 
             C 95,98 115,96 130,96
             C 145,96 165,98 182,105
             L 188,120
             C 175,128 155,135 130,135
             C 105,135 85,128 72,120
             Z"/>

    <!-- MID-LOWER PECTORALIS - Main chest mass -->
    <path class="muscle-region" id="mid-lower-pectoralis" data-muscle="mid-lower-pectoralis"
          d="M 72,122 
             C 85,130 105,138 130,138
             C 155,138 175,130 188,122
             L 195,140
             C 190,160 170,175 145,180
             L 130,182
             L 115,180
             C 90,175 70,160 65,140
             Z"/>

    <!-- LONG HEAD BICEP - Left (outer) -->
    <path class="muscle-region" id="long-head-bicep-L" data-muscle="long-head-bicep"
          d="M 46,155 
             C 42,170 40,190 40,210
             C 40,230 44,248 48,258
             L 54,256
             C 54,240 52,215 52,195
             C 52,175 50,162 50,155
             Z"/>
    
    <!-- LONG HEAD BICEP - Right -->
    <path class="muscle-region" id="long-head-bicep-R" data-muscle="long-head-bicep"
          d="M 214,155 
             C 218,170 220,190 220,210
             C 220,230 216,248 212,258
             L 206,256
             C 206,240 208,215 208,195
             C 208,175 210,162 210,155
             Z"/>

    <!-- SHORT HEAD BICEP - Left (inner) -->
    <path class="muscle-region" id="short-head-bicep-L" data-muscle="short-head-bicep"
          d="M 52,158 
             C 56,175 58,195 58,215
             C 58,235 54,252 52,260
             L 58,262
             C 64,250 68,225 66,200
             C 64,175 60,160 58,155
             Z"/>
    
    <!-- SHORT HEAD BICEP - Right -->
    <path class="muscle-region" id="short-head-bicep-R" data-muscle="short-head-bicep"
          d="M 208,158 
             C 204,175 202,195 202,215
             C 202,235 206,252 208,260
             L 202,262
             C 196,250 192,225 194,200
             C 196,175 200,160 202,155
             Z"/>

    <!-- WRIST FLEXORS - Left (inner forearm) -->
    <path class="muscle-region" id="wrist-flexors-L" data-muscle="wrist-flexors"
          d="M 52,265 
             C 48,280 42,300 38,320
             L 42,325
             C 50,305 55,285 58,270
             Z"/>
    
    <!-- WRIST FLEXORS - Right -->
    <path class="muscle-region" id="wrist-flexors-R" data-muscle="wrist-flexors"
          d="M 208,265 
             C 212,280 218,300 222,320
             L 218,325
             C 210,305 205,285 202,270
             Z"/>

    <!-- WRIST EXTENSORS - Left (outer forearm) -->
    <path class="muscle-region" id="wrist-extensors-L" data-muscle="wrist-extensors"
          d="M 45,262 
             C 40,280 34,305 30,328
             L 38,332
             C 42,310 46,285 50,268
             Z"/>
    
    <!-- WRIST EXTENSORS - Right -->
    <path class="muscle-region" id="wrist-extensors-R" data-muscle="wrist-extensors"
          d="M 215,262 
             C 220,280 226,305 230,328
             L 222,332
             C 218,310 214,285 210,268
             Z"/>

    <!-- UPPER ABDOMINALS -->
    <path class="muscle-region" id="upper-abdominals" data-muscle="upper-abdominals"
          d="M 108,182 
             L 152,182
             C 155,192 156,205 156,218
             L 104,218
             C 104,205 105,192 108,182
             Z"/>

    <!-- LOWER ABDOMINALS -->
    <path class="muscle-region" id="lower-abdominals" data-muscle="lower-abdominals"
          d="M 104,222 
             L 156,222
             C 156,240 154,255 150,268
             L 130,275
             L 110,268
             C 106,255 104,240 104,222
             Z"/>

    <!-- OBLIQUES - Left -->
    <path class="muscle-region" id="obliques-L" data-muscle="obliques"
          d="M 65,162 
             C 75,172 90,180 100,182
             L 100,268
             C 92,278 82,286 75,290
             C 68,285 62,275 58,260
             C 54,240 56,200 60,175
             Z"/>
    
    <!-- OBLIQUES - Right -->
    <path class="muscle-region" id="obliques-R" data-muscle="obliques"
          d="M 195,162 
             C 185,172 170,180 160,182
             L 160,268
             C 168,278 178,286 185,290
             C 192,285 198,275 202,260
             C 206,240 204,200 200,175
             Z"/>

    <!-- GROIN (Adductors upper) -->
    <path class="muscle-region" id="groin" data-muscle="groin"
          d="M 110,275 
             L 130,278
             L 150,275
             C 148,290 140,305 130,310
             C 120,305 112,290 110,275
             Z"/>

    <!-- INNER THIGH - Left -->
    <path class="muscle-region" id="inner-thigh-L" data-muscle="inner-thigh"
          d="M 112,295 
             C 115,310 118,340 115,380
             L 108,385
             C 105,350 105,320 108,295
             Z"/>
    
    <!-- INNER THIGH - Right -->
    <path class="muscle-region" id="inner-thigh-R" data-muscle="inner-thigh"
          d="M 148,295 
             C 145,310 142,340 145,380
             L 152,385
             C 155,350 155,320 152,295
             Z"/>

    <!-- RECTUS FEMORIS - Left (center of quad) -->
    <path class="muscle-region" id="rectus-femoris-L" data-muscle="rectus-femoris"
          d="M 92,295 
             C 88,320 85,360 85,400
             C 85,435 88,460 90,475
             L 100,478
             C 100,455 98,415 98,380
             C 98,340 95,310 95,295
             Z"/>
    
    <!-- RECTUS FEMORIS - Right -->
    <path class="muscle-region" id="rectus-femoris-R" data-muscle="rectus-femoris"
          d="M 168,295 
             C 172,320 175,360 175,400
             C 175,435 172,460 170,475
             L 160,478
             C 160,455 162,415 162,380
             C 162,340 165,310 165,295
             Z"/>

    <!-- OUTER QUADRICEP (Vastus Lateralis) - Left -->
    <path class="muscle-region" id="outer-quadricep-L" data-muscle="outer-quadricep"
          d="M 80,295 
             C 72,320 66,360 64,400
             C 62,435 64,465 68,480
             L 88,482
             C 86,460 84,420 85,380
             C 86,340 88,310 90,295
             Z"/>
    
    <!-- OUTER QUADRICEP - Right -->
    <path class="muscle-region" id="outer-quadricep-R" data-muscle="outer-quadricep"
          d="M 180,295 
             C 188,320 194,360 196,400
             C 198,435 196,465 192,480
             L 172,482
             C 174,460 176,420 175,380
             C 174,340 172,310 170,295
             Z"/>

    <!-- INNER QUADRICEP (Vastus Medialis) - Left -->
    <path class="muscle-region" id="inner-quadricep-L" data-muscle="inner-quadricep"
          d="M 97,380 
             C 100,410 102,445 102,470
             L 105,480
             L 112,478
             C 115,450 116,415 114,385
             Z"/>
    
    <!-- INNER QUADRICEP - Right -->
    <path class="muscle-region" id="inner-quadricep-R" data-muscle="inner-quadricep"
          d="M 163,380 
             C 160,410 158,445 158,470
             L 155,480
             L 148,478
             C 145,450 144,415 146,385
             Z"/>

    <!-- TIBIALIS - Left (front of shin) -->
    <path class="muscle-region" id="tibialis-L" data-muscle="tibialis"
          d="M 90,485 
             C 88,505 88,530 92,555
             L 102,555
             C 100,530 100,505 98,485
             Z"/>
    
    <!-- TIBIALIS - Right -->
    <path class="muscle-region" id="tibialis-R" data-muscle="tibialis"
          d="M 170,485 
             C 172,505 172,530 168,555
             L 158,555
             C 160,530 160,505 162,485
             Z"/>

    <!-- GASTROCNEMIUS - Left (calf muscle) -->
    <path class="muscle-region" id="gastrocnemius-L" data-muscle="gastrocnemius"
          d="M 68,485 
             C 64,505 64,530 68,555
             L 88,555
             C 86,535 86,510 88,488
             Z"/>
    
    <!-- GASTROCNEMIUS - Right -->
    <path class="muscle-region" id="gastrocnemius-R" data-muscle="gastrocnemius"
          d="M 192,485 
             C 196,505 196,530 192,555
             L 172,555
             C 174,535 174,510 172,488
             Z"/>

    <!-- SOLEUS - Left (lower calf) -->
    <path class="muscle-region" id="soleus-L" data-muscle="soleus"
          d="M 70,540 
             C 72,548 78,555 88,555
             L 68,555
             Z"/>
    
    <!-- SOLEUS - Right -->
    <path class="muscle-region" id="soleus-R" data-muscle="soleus"
          d="M 190,540 
             C 188,548 182,555 172,555
             L 192,555
             Z"/>

  </g>
</svg>